<mxfile host="app.diagrams.net" modified="2021-04-18T03:01:30.385Z" agent="5.0 (Macintosh; Intel Mac OS X 10_15_6) AppleWebKit/605.1.15 (KHTML, like Gecko) Version/14.0.3 Safari/605.1.15" etag="0mfsmJENTqL3cYHfb4Q0" version="14.6.1" type="github">
  <diagram id="XBdGEdZuoYDFL7lSEojX" name="第 1 页">
    <mxGraphModel dx="946" dy="620" grid="1" gridSize="10" guides="1" tooltips="1" connect="1" arrows="1" fold="1" page="1" pageScale="1" pageWidth="3300" pageHeight="2339" math="0" shadow="0">
      <root>
        <mxCell id="0" />
        <mxCell id="1" parent="0" />
        <mxCell id="3f5zlDb_dagVnjO15lD6-27" value="" style="rounded=0;whiteSpace=wrap;html=1;" vertex="1" parent="1">
          <mxGeometry x="745" y="50" width="250" height="330" as="geometry" />
        </mxCell>
        <mxCell id="3f5zlDb_dagVnjO15lD6-14" value="" style="rounded=0;whiteSpace=wrap;html=1;" vertex="1" parent="1">
          <mxGeometry x="430" y="50" width="240" height="330" as="geometry" />
        </mxCell>
        <mxCell id="3f5zlDb_dagVnjO15lD6-8" value="" style="rounded=0;whiteSpace=wrap;html=1;" vertex="1" parent="1">
          <mxGeometry x="150" y="50" width="220" height="330" as="geometry" />
        </mxCell>
        <mxCell id="3f5zlDb_dagVnjO15lD6-1" value="7. 应用层" style="rounded=1;whiteSpace=wrap;html=1;fillColor=#dae8fc;strokeColor=#6c8ebf;" vertex="1" parent="1">
          <mxGeometry x="190" y="100" width="140" height="40" as="geometry" />
        </mxCell>
        <mxCell id="3f5zlDb_dagVnjO15lD6-2" value="&lt;span&gt;4. 运输层&lt;/span&gt;" style="rounded=1;whiteSpace=wrap;html=1;fillColor=#dae8fc;strokeColor=#6c8ebf;" vertex="1" parent="1">
          <mxGeometry x="190" y="220" width="140" height="40" as="geometry" />
        </mxCell>
        <mxCell id="3f5zlDb_dagVnjO15lD6-3" value="6. 表示层" style="rounded=1;whiteSpace=wrap;html=1;fillColor=#dae8fc;strokeColor=#6c8ebf;" vertex="1" parent="1">
          <mxGeometry x="190" y="140" width="140" height="40" as="geometry" />
        </mxCell>
        <mxCell id="3f5zlDb_dagVnjO15lD6-15" style="edgeStyle=orthogonalEdgeStyle;rounded=0;orthogonalLoop=1;jettySize=auto;html=1;exitX=1;exitY=1;exitDx=0;exitDy=0;entryX=0;entryY=1;entryDx=0;entryDy=0;endArrow=none;endFill=0;dashed=1;" edge="1" parent="1" source="3f5zlDb_dagVnjO15lD6-4" target="3f5zlDb_dagVnjO15lD6-9">
          <mxGeometry relative="1" as="geometry">
            <Array as="points">
              <mxPoint x="410" y="220" />
              <mxPoint x="410" y="220" />
            </Array>
          </mxGeometry>
        </mxCell>
        <mxCell id="3f5zlDb_dagVnjO15lD6-4" value="5. 会话层" style="rounded=1;whiteSpace=wrap;html=1;fillColor=#dae8fc;strokeColor=#6c8ebf;" vertex="1" parent="1">
          <mxGeometry x="190" y="180" width="140" height="40" as="geometry" />
        </mxCell>
        <mxCell id="3f5zlDb_dagVnjO15lD6-5" value="3. 网络层" style="rounded=1;whiteSpace=wrap;html=1;fillColor=#dae8fc;strokeColor=#6c8ebf;" vertex="1" parent="1">
          <mxGeometry x="190" y="260" width="140" height="40" as="geometry" />
        </mxCell>
        <mxCell id="3f5zlDb_dagVnjO15lD6-6" value="2. 数据链路层" style="rounded=1;whiteSpace=wrap;html=1;fillColor=#dae8fc;strokeColor=#6c8ebf;" vertex="1" parent="1">
          <mxGeometry x="190" y="300" width="140" height="40" as="geometry" />
        </mxCell>
        <mxCell id="3f5zlDb_dagVnjO15lD6-7" value="1. 物理层" style="rounded=1;whiteSpace=wrap;html=1;fillColor=#dae8fc;strokeColor=#6c8ebf;" vertex="1" parent="1">
          <mxGeometry x="190" y="340" width="140" height="40" as="geometry" />
        </mxCell>
        <mxCell id="3f5zlDb_dagVnjO15lD6-9" value="应用层" style="rounded=0;whiteSpace=wrap;html=1;fillColor=#d5e8d4;strokeColor=#82b366;" vertex="1" parent="1">
          <mxGeometry x="475" y="100" width="140" height="120" as="geometry" />
        </mxCell>
        <mxCell id="3f5zlDb_dagVnjO15lD6-10" value="运输层" style="rounded=0;whiteSpace=wrap;html=1;fillColor=#d5e8d4;strokeColor=#82b366;" vertex="1" parent="1">
          <mxGeometry x="475" y="220" width="140" height="40" as="geometry" />
        </mxCell>
        <mxCell id="3f5zlDb_dagVnjO15lD6-11" value="&lt;span&gt;&amp;nbsp;网络层&lt;/span&gt;" style="rounded=0;whiteSpace=wrap;html=1;fillColor=#d5e8d4;strokeColor=#82b366;" vertex="1" parent="1">
          <mxGeometry x="475" y="260" width="140" height="40" as="geometry" />
        </mxCell>
        <mxCell id="3f5zlDb_dagVnjO15lD6-13" value="网络接口层" style="rounded=0;whiteSpace=wrap;html=1;fillColor=#d5e8d4;strokeColor=#82b366;" vertex="1" parent="1">
          <mxGeometry x="475" y="300" width="140" height="80" as="geometry" />
        </mxCell>
        <mxCell id="3f5zlDb_dagVnjO15lD6-17" style="edgeStyle=orthogonalEdgeStyle;rounded=0;orthogonalLoop=1;jettySize=auto;html=1;exitX=1;exitY=1;exitDx=0;exitDy=0;entryX=0;entryY=1;entryDx=0;entryDy=0;endArrow=none;endFill=0;dashed=1;" edge="1" parent="1">
          <mxGeometry relative="1" as="geometry">
            <mxPoint x="330" y="259" as="sourcePoint" />
            <mxPoint x="475" y="259" as="targetPoint" />
            <Array as="points">
              <mxPoint x="410" y="259" />
              <mxPoint x="410" y="259" />
            </Array>
          </mxGeometry>
        </mxCell>
        <mxCell id="3f5zlDb_dagVnjO15lD6-18" style="edgeStyle=orthogonalEdgeStyle;rounded=0;orthogonalLoop=1;jettySize=auto;html=1;exitX=1;exitY=1;exitDx=0;exitDy=0;entryX=0;entryY=1;entryDx=0;entryDy=0;endArrow=none;endFill=0;dashed=1;" edge="1" parent="1">
          <mxGeometry relative="1" as="geometry">
            <mxPoint x="330" y="300" as="sourcePoint" />
            <mxPoint x="475" y="300" as="targetPoint" />
            <Array as="points">
              <mxPoint x="410" y="300" />
              <mxPoint x="410" y="300" />
            </Array>
          </mxGeometry>
        </mxCell>
        <mxCell id="3f5zlDb_dagVnjO15lD6-19" value="OSI 7层体系结构" style="text;html=1;strokeColor=none;fillColor=none;align=center;verticalAlign=middle;whiteSpace=wrap;rounded=0;" vertex="1" parent="1">
          <mxGeometry x="202.5" y="70" width="115" height="20" as="geometry" />
        </mxCell>
        <mxCell id="3f5zlDb_dagVnjO15lD6-20" value="TCP/IP 4 层体系结构" style="text;html=1;strokeColor=none;fillColor=none;align=center;verticalAlign=middle;whiteSpace=wrap;rounded=0;" vertex="1" parent="1">
          <mxGeometry x="487.5" y="70" width="115" height="20" as="geometry" />
        </mxCell>
        <mxCell id="3f5zlDb_dagVnjO15lD6-21" value="5. 应用层" style="rounded=0;whiteSpace=wrap;html=1;fillColor=#e1d5e7;strokeColor=#9673a6;" vertex="1" parent="1">
          <mxGeometry x="800" y="100" width="140" height="120" as="geometry" />
        </mxCell>
        <mxCell id="3f5zlDb_dagVnjO15lD6-22" value="4. 运输层" style="rounded=0;whiteSpace=wrap;html=1;fillColor=#e1d5e7;strokeColor=#9673a6;" vertex="1" parent="1">
          <mxGeometry x="800" y="220" width="140" height="40" as="geometry" />
        </mxCell>
        <mxCell id="3f5zlDb_dagVnjO15lD6-23" value="3. 网络层" style="rounded=0;whiteSpace=wrap;html=1;fillColor=#e1d5e7;strokeColor=#9673a6;" vertex="1" parent="1">
          <mxGeometry x="800" y="260" width="140" height="40" as="geometry" />
        </mxCell>
        <mxCell id="3f5zlDb_dagVnjO15lD6-24" value="2. 数据链路层" style="rounded=0;whiteSpace=wrap;html=1;fillColor=#e1d5e7;strokeColor=#9673a6;" vertex="1" parent="1">
          <mxGeometry x="800" y="300" width="140" height="40" as="geometry" />
        </mxCell>
        <mxCell id="3f5zlDb_dagVnjO15lD6-26" value="1. 物理层" style="rounded=0;whiteSpace=wrap;html=1;fillColor=#e1d5e7;strokeColor=#9673a6;" vertex="1" parent="1">
          <mxGeometry x="800" y="340" width="140" height="40" as="geometry" />
        </mxCell>
        <mxCell id="3f5zlDb_dagVnjO15lD6-28" value="5 层体系结构" style="text;html=1;strokeColor=none;fillColor=none;align=center;verticalAlign=middle;whiteSpace=wrap;rounded=0;" vertex="1" parent="1">
          <mxGeometry x="812.5" y="70" width="115" height="20" as="geometry" />
        </mxCell>
        <mxCell id="3f5zlDb_dagVnjO15lD6-29" style="edgeStyle=orthogonalEdgeStyle;rounded=0;orthogonalLoop=1;jettySize=auto;html=1;exitX=1;exitY=1;exitDx=0;exitDy=0;entryX=0;entryY=0;entryDx=0;entryDy=0;endArrow=none;endFill=0;dashed=1;" edge="1" parent="1" target="3f5zlDb_dagVnjO15lD6-22">
          <mxGeometry relative="1" as="geometry">
            <mxPoint x="615" y="220" as="sourcePoint" />
            <mxPoint x="760" y="220" as="targetPoint" />
            <Array as="points">
              <mxPoint x="750" y="220" />
              <mxPoint x="750" y="220" />
            </Array>
          </mxGeometry>
        </mxCell>
        <mxCell id="3f5zlDb_dagVnjO15lD6-30" style="edgeStyle=orthogonalEdgeStyle;rounded=0;orthogonalLoop=1;jettySize=auto;html=1;exitX=1;exitY=1;exitDx=0;exitDy=0;entryX=0;entryY=0;entryDx=0;entryDy=0;endArrow=none;endFill=0;dashed=1;" edge="1" parent="1">
          <mxGeometry relative="1" as="geometry">
            <mxPoint x="615" y="260" as="sourcePoint" />
            <mxPoint x="800" y="260" as="targetPoint" />
            <Array as="points">
              <mxPoint x="750" y="260" />
              <mxPoint x="750" y="260" />
            </Array>
          </mxGeometry>
        </mxCell>
        <mxCell id="3f5zlDb_dagVnjO15lD6-31" style="edgeStyle=orthogonalEdgeStyle;rounded=0;orthogonalLoop=1;jettySize=auto;html=1;exitX=1;exitY=1;exitDx=0;exitDy=0;entryX=0;entryY=0;entryDx=0;entryDy=0;endArrow=none;endFill=0;dashed=1;" edge="1" parent="1">
          <mxGeometry relative="1" as="geometry">
            <mxPoint x="615" y="299" as="sourcePoint" />
            <mxPoint x="800" y="299" as="targetPoint" />
            <Array as="points">
              <mxPoint x="750" y="299" />
              <mxPoint x="750" y="299" />
            </Array>
          </mxGeometry>
        </mxCell>
        <mxCell id="3f5zlDb_dagVnjO15lD6-32" style="edgeStyle=orthogonalEdgeStyle;rounded=0;orthogonalLoop=1;jettySize=auto;html=1;exitX=1;exitY=1;exitDx=0;exitDy=0;entryX=0;entryY=0;entryDx=0;entryDy=0;endArrow=none;endFill=0;dashed=1;" edge="1" parent="1">
          <mxGeometry relative="1" as="geometry">
            <mxPoint x="615" y="339" as="sourcePoint" />
            <mxPoint x="800" y="339" as="targetPoint" />
            <Array as="points">
              <mxPoint x="750" y="339" />
              <mxPoint x="750" y="339" />
            </Array>
          </mxGeometry>
        </mxCell>
        <mxCell id="3f5zlDb_dagVnjO15lD6-33" value="&lt;b&gt;&lt;font style=&quot;font-size: 13px&quot;&gt;计算机网络体系结构&lt;/font&gt;&lt;/b&gt;" style="text;html=1;strokeColor=none;fillColor=none;align=center;verticalAlign=middle;whiteSpace=wrap;rounded=0;" vertex="1" parent="1">
          <mxGeometry x="490" y="400" width="160" height="30" as="geometry" />
        </mxCell>
      </root>
    </mxGraphModel>
  </diagram>
</mxfile>
